<?xml version="1.0" encoding="utf-8"?>
<!-- Generator: Adobe Illustrator 22.1.0, SVG Export Plug-In . SVG Version: 6.00 Build 0)  -->
<svg version="1.1" xmlns="http://www.w3.org/2000/svg" xmlns:xlink="http://www.w3.org/1999/xlink" x="0px" y="0px"
	 viewBox="0 0 181.613 200" style="enable-background:new 0 0 181.613 200;" xml:space="preserve">
<style type="text/css">
	.st0{fill:#FFFFFF;}
	.st1{fill:#367C1A;}
	.st2{fill:#333333;}
</style>
<g id="Layer_1">
</g>
<g id="Layer_3">
</g>
<g id="Layer_2">
</g>
<g id="Layer_4">
	<g>
		<g>
			<g>
				<g>
					<g>
						<ellipse class="st0" cx="90.807" cy="65.07" rx="60.675" ry="60.637"/>
						<g>
							<path class="st1" d="M122.377,37.907c-4.799-1.869-9.641-0.892-10.873,2.166s1.656,7.135,6.498,9.004
								c4.799,1.869,9.174,1.529,10.873-2.166C130.192,43.853,127.177,39.776,122.377,37.907z"/>
							<path class="st1" d="M61.726,62.839c-0.637,0.297-1.232,0.255-1.699,0.637c-2.591,2.166-5.734,10.916-6.753,14.908
								c-0.425,1.656-1.614,4.715-0.849,6.498c0.382,1.019,1.911,1.699,2.888,2.124c2.209,1.019,7.135,3.525,10.024,3.27
								c1.614-0.17,2.336-2.039,3.058-3.185c2.378-3.695,4.12-8.325,5.437-12.954c0.425-1.487,1.487-4.417,0.68-5.989
								C73.236,66.024,65.039,63.136,61.726,62.839z"/>
							<path class="st1" d="M136.818,19.049c-25.399-25.399-66.64-25.399-92.039,0s-25.399,66.64,0,92.039s66.64,25.399,92.039,0
								S162.259,44.448,136.818,19.049z M89.801,19.346l10.109,3.78l-13.634,35.89l-10.151-3.865L89.801,19.346z M69.966,97.921
								c-4.247,1.317-10.873-1.317-14.059-2.591c-4.672-1.954-10.278-3.908-12.36-8.41c-1.444-3.143-0.934-7.135-0.212-10.703
								c1.571-7.348,4.714-14.823,9.599-19.028c1.019-0.849,3.738-1.954,4.63-2.081c2.166-0.297,4.375-0.127,6.498,0.425
								c6.668,1.741,16.055,5.564,18.816,10.278c1.954,3.313,1.274,8.367,0.255,12.19C81.221,85.562,77.059,95.755,69.966,97.921z
								 M121.57,91.083c-2.888,4.799-8.367,5.012-14.611,5.734l-4.417,0.212c-3.568,0.552-10.448,0.552-11.213,3.525l22.638,8.707
								c-0.382,1.189-2.633,6.753-2.633,6.753l-32.237-12.317c0,0,1.019-2.761,1.572-4.162c2.166-5.309,5.182-8.155,11.553-9.641
								c6.371-1.487,18.178-0.085,20.175-3.228c1.232-1.954-1.189-4.502-2.336-5.394c-5.097-3.865-15.63-3.908-20.09-3.27
								c0.17-0.934,2.633-7.475,3.101-7.9c3.101-0.51,17.966,0.255,26.461,9.047C122.165,81.824,124.076,86.921,121.57,91.083z
								 M117.323,64.877c-2.209,0.637-9.217,2.548-9.217,2.548l-13.421-5.097v-0.255l5.819-1.274
								c4.077-1.019,8.07-1.826,11.935-3.185l3.908-1.274l-2.761-1.019c-1.656-0.637-3.228-1.487-4.757-2.463
								c-4.927-3.355-10.236-10.278-6.244-17.626c1.487-2.803,5.606-7.475,16.225-5.734c6.923,1.147,14.059,4.502,17.881,10.109
								c2.336,3.44,3.143,9.302,0.722,13.337C133.505,59.398,125.265,62.499,117.323,64.877z"/>
						</g>
					</g>
				</g>
			</g>
		</g>
		<g>
			<g>
				<path class="st2" d="M33.743,150.07c-2.074,0-3.954,0.389-5.64,1.134c-1.653,0.746-3.112,1.783-4.279,3.079
					c-1.167,1.264-2.107,2.788-2.723,4.473c-0.648,1.686-0.94,3.501-0.94,5.348c0,1.88,0.357,3.63,1.037,5.219
					c0.681,1.588,1.621,2.95,2.788,4.084c1.167,1.134,2.561,2.01,4.149,2.626c1.815,0.713,3.565,0.94,5.024,0.94
					c1.621,0,2.885-0.259,3.565-0.454c2.301-0.616,4.279-1.718,5.932-3.339c2.69-2.625,4.052-5.964,4.052-9.919
					c0-4.084-1.329-7.358-3.922-9.789C40.355,151.205,37.308,150.07,33.743,150.07z M41.23,163.651c0,2.593-0.713,4.668-2.074,6.159
					c-1.361,1.459-3.209,2.204-5.445,2.204c-2.366,0-4.311-0.778-5.834-2.269c-0.713-0.713-1.264-1.588-1.653-2.593
					s-0.583-2.107-0.583-3.306c0-2.496,0.681-4.635,2.01-6.288c1.426-1.783,3.339-2.658,5.737-2.658
					c2.463,0,4.473,0.875,5.867,2.626C40.549,159.146,41.23,161.22,41.23,163.651z"/>
				<polygon class="st2" points="48.523,176.941 53.904,176.941 53.904,165.726 62.202,165.726 62.137,160.961 53.904,160.961 
					53.904,155.872 63.336,155.872 63.336,150.945 48.523,150.945 				"/>
				<polygon class="st2" points="66.091,155.807 72.509,155.807 72.509,176.26 72.574,176.844 77.987,176.941 77.987,155.807 
					84.437,155.807 84.437,150.881 66.091,150.881 				"/>
				<path class="st2" d="M125.505,150.848l-9.173,25.931l5.51,0.162l1.815-5.737h8.752l1.815,5.575l5.867,0.065l-9.335-26.028
					L125.505,150.848L125.505,150.848z M130.886,166.504h-5.705l2.82-8.914L130.886,166.504z"/>
				<path class="st2" d="M159.637,164.721c1.491-1.426,2.431-3.76,2.431-6.126c0-2.82-0.875-4.83-2.658-6.159
					c-1.88-1.394-3.501-2.074-10.47-2.01c-2.366,0.032-6.548,0.454-6.742,0.454l-0.519,0.065v25.996h5.219v-9.594h6.094l4.505,9.594
					h5.834l-5.51-10.923C158.502,165.629,159.118,165.207,159.637,164.721z M157.076,158.692c0,1.556-0.551,3.047-1.361,3.663
					c-0.421,0.324-0.94,0.551-1.523,0.681c-0.583,0.162-1.297,0.227-2.139,0.227h-5.154v-8.071c1.297-0.032,4.311-0.13,4.83-0.13
					c1.75,0,3.014,0.259,3.922,0.746C156.59,156.391,157.076,157.331,157.076,158.692z"/>
				<polygon class="st2" points="181.613,155.743 181.613,150.913 166.509,150.913 166.509,176.941 181.613,176.941 
					181.613,172.209 171.662,172.209 171.662,165.337 179.215,165.337 179.15,160.637 171.662,160.637 171.662,155.743 				"/>
				<polygon class="st2" points="113.577,150.945 108.715,168.416 104.274,150.945 100.093,150.945 95.652,168.416 90.79,150.945 
					85.766,150.945 93.059,176.909 98.083,176.941 102.2,159.762 106.284,176.941 111.308,176.909 118.634,150.945 				"/>
				<path class="st2" d="M14.132,161.674L14.132,161.674c-1.102-0.421-2.561-0.746-4.343-0.972
					c-1.815-0.227-3.079-0.648-3.857-1.232c-0.616-0.486-0.94-1.199-0.94-2.204c0-0.745,0.357-1.329,1.07-1.815
					c0.324-0.227,0.746-0.389,1.199-0.486c0.713-0.194,2.172-0.454,3.76-0.13c1.329,0.259,2.237,0.486,2.95,0.81l0.486,0.227
					l2.172-3.792l-0.486-0.292c-2.01-1.134-4.376-1.718-7.001-1.718c-2.788,0-5.024,0.746-6.677,2.172
					c-1.653,1.459-2.431,3.274-2.431,5.608c0,2.237,0.616,3.987,1.848,5.219c0.681,0.681,1.588,1.264,2.723,1.718
					c1.134,0.454,2.593,0.778,4.343,0.94c1.783,0.162,3.014,0.486,3.792,1.005c0.389,0.227,0.648,0.519,0.81,0.875
					c0.162,0.324,0.259,0.778,0.259,1.297c0,0.519-0.13,1.005-0.421,1.426c-0.843,1.232-2.561,1.88-5.154,1.88
					c-2.301,0-4.246-0.583-5.737-1.686l-0.583-0.454l-1.88,4.019L0,174.672l0.292,0.194c0.486,0.292,1.037,0.583,1.621,0.81
					c2.204,0.843,4.441,1.297,6.677,1.297c2.788,0,5.121-0.681,6.969-1.977c2.172-1.556,3.241-3.728,3.241-6.612
					c0-2.204-0.648-3.857-1.977-5.057C16.142,162.614,15.234,162.096,14.132,161.674z"/>
			</g>
		</g>
		<g>
			<path class="st2" d="M43.577,199.555c-0.891-0.297-1.683-0.718-2.301-1.287l0.718-1.485c0.693,0.544,1.386,0.94,2.128,1.188
				c0.718,0.247,1.534,0.371,2.45,0.371c1.039,0,1.831-0.198,2.4-0.569c0.569-0.396,0.841-0.94,0.841-1.633
				c0-0.594-0.272-1.064-0.792-1.336c-0.52-0.297-1.361-0.569-2.524-0.841c-1.114-0.247-2.005-0.495-2.722-0.817
				s-1.262-0.718-1.658-1.237c-0.396-0.52-0.594-1.188-0.594-1.98c0-0.817,0.223-1.534,0.643-2.153
				c0.421-0.619,1.039-1.089,1.831-1.435c0.792-0.346,1.708-0.52,2.747-0.52c0.965,0,1.881,0.148,2.747,0.445
				c0.866,0.297,1.559,0.718,2.104,1.262l-0.718,1.485c-0.643-0.52-1.312-0.916-1.98-1.163s-1.386-0.396-2.153-0.396
				c-0.99,0-1.782,0.198-2.351,0.619s-0.866,0.99-0.866,1.732c0,0.619,0.247,1.114,0.742,1.435c0.495,0.322,1.312,0.619,2.4,0.866
				c1.163,0.272,2.079,0.544,2.796,0.817c0.718,0.272,1.287,0.668,1.708,1.163c0.421,0.495,0.643,1.138,0.643,1.93
				c0,0.792-0.223,1.51-0.643,2.104c-0.421,0.594-1.039,1.064-1.831,1.386c-0.792,0.322-1.732,0.495-2.821,0.495
				C45.458,200,44.468,199.852,43.577,199.555z"/>
			<path class="st2" d="M53.946,185.944h2.277v2.079h-2.277V185.944z M54.094,199.827v-9.602h1.98v9.602H54.094z"/>
			<path class="st2" d="M67.458,193.863v5.964h-1.98v-5.865c0-0.817-0.148-1.411-0.47-1.782c-0.322-0.371-0.817-0.569-1.51-0.569
				c-0.792,0-1.435,0.247-1.93,0.742c-0.495,0.495-0.718,1.163-0.718,2.005v5.469h-1.98v-9.602h1.955v1.534
				c0.322-0.569,0.742-1.015,1.312-1.312s1.213-0.445,1.906-0.445C66.319,190.002,67.458,191.289,67.458,193.863z"/>
			<path class="st2" d="M71.863,199.357c-0.718-0.396-1.262-0.99-1.658-1.732c-0.396-0.742-0.569-1.609-0.569-2.598
				s0.198-1.881,0.594-2.648c0.396-0.767,0.965-1.361,1.683-1.782c0.718-0.421,1.584-0.619,2.549-0.619
				c0.668,0,1.312,0.099,1.93,0.346c0.619,0.223,1.138,0.52,1.534,0.916l-0.619,1.411c-0.866-0.718-1.757-1.064-2.697-1.064
				c-0.916,0-1.633,0.297-2.153,0.891c-0.52,0.594-0.767,1.435-0.767,2.524c0,1.064,0.247,1.906,0.767,2.499
				c0.52,0.594,1.237,0.866,2.178,0.866s1.831-0.346,2.697-1.064l0.619,1.435c-0.421,0.371-0.94,0.668-1.584,0.891
				c-0.619,0.223-1.287,0.322-1.98,0.322C73.422,199.975,72.58,199.777,71.863,199.357z"/>
			<path class="st2" d="M87.924,195.372h-6.781c0.148,2.029,1.163,3.044,3.019,3.044c1.114,0,2.104-0.371,2.994-1.089l0.619,1.386
				c-0.445,0.371-0.99,0.693-1.658,0.916c-0.668,0.223-1.336,0.346-2.005,0.346c-1.534,0-2.747-0.445-3.638-1.312
				c-0.891-0.891-1.336-2.104-1.336-3.638c0-0.99,0.198-1.856,0.569-2.623c0.396-0.767,0.94-1.361,1.633-1.782
				c0.693-0.421,1.51-0.619,2.4-0.619c1.312,0,2.326,0.421,3.069,1.262c0.742,0.841,1.114,2.005,1.114,3.489L87.924,195.372
				L87.924,195.372z M81.96,192.155c-0.445,0.47-0.718,1.163-0.817,2.054h5.048c-0.049-0.891-0.272-1.584-0.668-2.054
				c-0.421-0.47-0.99-0.718-1.732-0.718C83.024,191.438,82.43,191.685,81.96,192.155z"/>
			<path class="st2" d="M101.411,198.169h3.044v1.683h-8.117v-1.683h3.019v-9.775l-2.425,1.485l-0.866-1.51l3.861-2.376h1.46
				L101.411,198.169L101.411,198.169z"/>
			<path class="st2" d="M115.17,187.552c0.916,1.163,1.386,2.846,1.386,5.024c0,1.559-0.223,2.871-0.668,3.984
				c-0.445,1.114-1.064,1.955-1.881,2.549s-1.807,0.866-2.97,0.866c-0.817,0-1.609-0.148-2.376-0.445
				c-0.767-0.297-1.435-0.693-2.029-1.237l0.718-1.485c1.262,1.015,2.475,1.51,3.613,1.51s2.005-0.495,2.623-1.485
				s0.916-2.4,0.916-4.232v-0.049c-0.297,0.668-0.767,1.188-1.411,1.584c-0.643,0.396-1.386,0.569-2.202,0.569
				c-0.817,0-1.559-0.198-2.227-0.569c-0.643-0.371-1.163-0.891-1.534-1.559s-0.544-1.435-0.544-2.301s0.198-1.633,0.594-2.326
				c0.396-0.693,0.94-1.237,1.633-1.609c0.693-0.396,1.485-0.569,2.351-0.569C112.918,185.795,114.254,186.389,115.17,187.552z
				 M113.314,192.328c0.52-0.52,0.767-1.188,0.767-2.029s-0.247-1.534-0.767-2.054c-0.52-0.52-1.188-0.767-2.029-0.767
				c-0.817,0-1.46,0.247-1.955,0.767c-0.495,0.52-0.742,1.213-0.742,2.054s0.247,1.51,0.742,2.029
				c0.495,0.52,1.138,0.767,1.955,0.767C112.126,193.096,112.794,192.848,113.314,192.328z"/>
			<path class="st2" d="M126.974,187.552c0.916,1.163,1.386,2.846,1.386,5.024c0,1.559-0.223,2.871-0.668,3.984
				c-0.445,1.114-1.064,1.955-1.881,2.549c-0.817,0.594-1.807,0.866-2.97,0.866c-0.817,0-1.609-0.148-2.376-0.445
				s-1.435-0.693-2.029-1.237l0.718-1.485c1.262,1.015,2.475,1.51,3.613,1.51c1.138,0,2.005-0.495,2.623-1.485
				s0.916-2.4,0.916-4.232v-0.049c-0.297,0.668-0.767,1.188-1.411,1.584c-0.643,0.396-1.386,0.569-2.202,0.569
				c-0.817,0-1.559-0.198-2.227-0.569c-0.643-0.371-1.163-0.891-1.534-1.559c-0.371-0.668-0.544-1.435-0.544-2.301
				s0.198-1.633,0.594-2.326c0.396-0.693,0.94-1.237,1.633-1.609c0.693-0.396,1.485-0.569,2.351-0.569
				C124.722,185.795,126.059,186.389,126.974,187.552z M125.118,192.328c0.52-0.52,0.767-1.188,0.767-2.029
				s-0.247-1.534-0.767-2.054c-0.52-0.52-1.188-0.767-2.029-0.767c-0.817,0-1.46,0.247-1.955,0.767
				c-0.495,0.52-0.742,1.213-0.742,2.054s0.247,1.51,0.742,2.029c0.495,0.52,1.138,0.767,1.955,0.767
				C123.931,193.096,124.599,192.848,125.118,192.328z"/>
			<path class="st2" d="M139.67,193.962c0.445,0.594,0.668,1.336,0.668,2.178c0,1.213-0.445,2.153-1.336,2.821
				c-0.891,0.668-2.128,1.015-3.762,1.015c-1.609,0-2.871-0.346-3.762-1.015c-0.891-0.668-1.336-1.609-1.336-2.821
				c0-0.841,0.223-1.584,0.668-2.178c0.445-0.594,1.089-1.015,1.906-1.237c-0.693-0.272-1.237-0.668-1.633-1.237
				s-0.594-1.213-0.594-1.98c0-1.138,0.421-2.054,1.262-2.697c0.841-0.668,2.005-0.99,3.489-0.99s2.648,0.322,3.489,0.99
				s1.262,1.559,1.262,2.697c0,0.742-0.198,1.411-0.594,1.98c-0.396,0.569-0.94,0.99-1.633,1.237
				C138.581,192.947,139.224,193.368,139.67,193.962z M138.383,195.991c0-1.584-1.039-2.351-3.118-2.351s-3.118,0.792-3.118,2.351
				c0,1.559,1.039,2.351,3.118,2.351C137.343,198.342,138.383,197.55,138.383,195.991z M133.161,188.022
				c-0.47,0.396-0.718,0.94-0.718,1.658c0,0.742,0.247,1.312,0.718,1.708c0.47,0.396,1.163,0.594,2.079,0.594
				s1.609-0.198,2.079-0.594s0.718-0.965,0.718-1.708c0-0.718-0.247-1.287-0.718-1.658c-0.47-0.396-1.163-0.569-2.079-0.569
				C134.324,187.428,133.631,187.626,133.161,188.022z"/>
		</g>
	</g>
</g>
</svg>
