<?xml version="1.0" encoding="utf-8"?>
<!-- Generator: Adobe Illustrator 22.1.0, SVG Export Plug-In . SVG Version: 6.00 Build 0)  -->
<svg version="1.1" xmlns="http://www.w3.org/2000/svg" xmlns:xlink="http://www.w3.org/1999/xlink" x="0px" y="0px"
	 viewBox="0 0 46 14.055" style="enable-background:new 0 0 46 14.055;" xml:space="preserve">
<style type="text/css">
	.st0{fill:#FFFFFF;}
	.st1{fill:#367C1A;}
	.st2{fill:#333333;}
</style>
<g id="Layer_1">
</g>
<g id="Layer_3">
</g>
<g id="Layer_2">
</g>
<g id="Layer_4">
	<g>
		<g>
			<g>
				<ellipse class="st0" cx="7.007" cy="7.323" rx="6.317" ry="5.991"/>
				<g>
					<path class="st1" d="M10.438,4.094C9.92,3.892,9.397,3.998,9.264,4.328s0.179,0.771,0.702,0.972
						c0.518,0.202,0.991,0.165,1.174-0.234C11.282,4.736,10.957,4.296,10.438,4.094z"/>
					<path class="st1" d="M3.888,6.787C3.819,6.819,3.755,6.814,3.704,6.856c-0.28,0.234-0.619,1.179-0.729,1.61
						C2.929,8.645,2.8,8.975,2.883,9.168c0.041,0.11,0.206,0.183,0.312,0.229c0.239,0.11,0.771,0.381,1.083,0.353
						c0.174-0.018,0.252-0.22,0.33-0.344c0.257-0.399,0.445-0.899,0.587-1.399C5.241,7.846,5.356,7.53,5.268,7.36
						C5.131,7.131,4.245,6.819,3.888,6.787z"/>
					<path class="st1" d="M11.998,2.057c-2.743-2.743-7.197-2.743-9.94,0s-2.743,7.197,0,9.94s7.197,2.743,9.94,0
						S14.746,4.801,11.998,2.057z M6.92,2.089l1.092,0.408L6.539,6.374L5.443,5.956L6.92,2.089z M4.778,10.576
						c-0.459,0.142-1.174-0.142-1.518-0.28c-0.505-0.211-1.11-0.422-1.335-0.908C1.768,9.048,1.823,8.617,1.901,8.232
						c0.17-0.794,0.509-1.601,1.037-2.055c0.11-0.092,0.404-0.211,0.5-0.225C3.672,5.92,3.911,5.938,4.14,5.998
						c0.72,0.188,1.734,0.601,2.032,1.11C6.383,7.466,6.31,8.012,6.2,8.424C5.993,9.241,5.544,10.342,4.778,10.576z M10.351,9.837
						c-0.312,0.518-0.904,0.541-1.578,0.619l-0.477,0.023c-0.385,0.06-1.128,0.06-1.211,0.381l2.445,0.94
						c-0.041,0.128-0.284,0.729-0.284,0.729L5.764,11.2c0,0,0.11-0.298,0.17-0.45c0.234-0.573,0.56-0.881,1.248-1.041
						C7.869,9.548,9.145,9.7,9.36,9.36c0.133-0.211-0.128-0.486-0.252-0.583C8.557,8.36,7.42,8.356,6.938,8.424
						c0.018-0.101,0.284-0.807,0.335-0.853c0.335-0.055,1.94,0.028,2.858,0.977C10.415,8.837,10.622,9.388,10.351,9.837z
						 M9.892,7.007C9.654,7.076,8.897,7.282,8.897,7.282l-1.45-0.55V6.704l0.628-0.138c0.44-0.11,0.872-0.197,1.289-0.344
						l0.422-0.138l-0.298-0.11C9.31,5.906,9.14,5.814,8.975,5.709c-0.532-0.362-1.106-1.11-0.674-1.904
						c0.161-0.303,0.606-0.807,1.752-0.619c0.748,0.124,1.518,0.486,1.931,1.092c0.252,0.372,0.339,1.005,0.078,1.44
						C11.64,6.415,10.75,6.75,9.892,7.007z"/>
				</g>
			</g>
		</g>
		<g>
			<g>
				<path class="st2" d="M22.301,3.027c-0.332,0-0.634,0.062-0.904,0.182c-0.265,0.119-0.499,0.286-0.686,0.494
					c-0.187,0.203-0.338,0.447-0.436,0.717c-0.104,0.27-0.151,0.561-0.151,0.857c0,0.301,0.057,0.582,0.166,0.836
					c0.109,0.255,0.26,0.473,0.447,0.655c0.187,0.182,0.41,0.322,0.665,0.421c0.291,0.114,0.571,0.151,0.805,0.151
					c0.26,0,0.462-0.042,0.571-0.073c0.369-0.099,0.686-0.275,0.951-0.535c0.431-0.421,0.649-0.956,0.649-1.59
					c0-0.655-0.213-1.179-0.629-1.569C23.361,3.208,22.873,3.027,22.301,3.027z M23.501,5.203c0,0.416-0.114,0.748-0.332,0.987
					c-0.218,0.234-0.514,0.353-0.873,0.353c-0.379,0-0.691-0.125-0.935-0.364c-0.114-0.114-0.203-0.255-0.265-0.416
					c-0.062-0.161-0.094-0.338-0.094-0.53c0-0.4,0.109-0.743,0.322-1.008c0.229-0.286,0.535-0.426,0.919-0.426
					c0.395,0,0.717,0.14,0.94,0.421C23.392,4.481,23.501,4.814,23.501,5.203z"/>
				<polygon class="st2" points="24.67,7.333 25.532,7.333 25.532,5.536 26.862,5.536 26.852,4.772 25.532,4.772 25.532,3.956 
					27.044,3.956 27.044,3.167 24.67,3.167 				"/>
				<polygon class="st2" points="27.486,3.946 28.514,3.946 28.514,7.224 28.525,7.317 29.392,7.333 29.392,3.946 30.426,3.946 
					30.426,3.156 27.486,3.156 				"/>
				<path class="st2" d="M37.008,3.151l-1.47,4.156l0.883,0.026l0.291-0.919h1.403l0.291,0.894l0.94,0.01l-1.496-4.171L37.008,3.151
					L37.008,3.151z M37.87,5.66h-0.914l0.452-1.429L37.87,5.66z"/>
				<path class="st2" d="M42.478,5.375c0.239-0.229,0.39-0.603,0.39-0.982c0-0.452-0.14-0.774-0.426-0.987
					c-0.301-0.223-0.561-0.332-1.678-0.322c-0.379,0.005-1.049,0.073-1.081,0.073L39.6,3.167v4.166h0.836V5.795h0.977l0.722,1.538
					h0.935l-0.883-1.751C42.296,5.52,42.395,5.453,42.478,5.375z M42.068,4.408c0,0.249-0.088,0.488-0.218,0.587
					c-0.068,0.052-0.151,0.088-0.244,0.109c-0.094,0.026-0.208,0.036-0.343,0.036h-0.826V3.847c0.208-0.005,0.691-0.021,0.774-0.021
					c0.281,0,0.483,0.042,0.629,0.119C41.99,4.04,42.068,4.19,42.068,4.408z"/>
				<polygon class="st2" points="46,3.936 46,3.162 43.579,3.162 43.579,7.333 46,7.333 46,6.575 44.405,6.575 44.405,5.473 
					45.616,5.473 45.605,4.72 44.405,4.72 44.405,3.936 				"/>
				<polygon class="st2" points="35.096,3.167 34.317,5.967 33.605,3.167 32.935,3.167 32.223,5.967 31.444,3.167 30.639,3.167 
					31.808,7.328 32.613,7.333 33.273,4.58 33.927,7.333 34.732,7.328 35.906,3.167 				"/>
				<path class="st2" d="M19.158,4.886L19.158,4.886c-0.177-0.068-0.41-0.119-0.696-0.156c-0.291-0.036-0.494-0.104-0.618-0.197
					c-0.099-0.078-0.151-0.192-0.151-0.353c0-0.119,0.057-0.213,0.171-0.291c0.052-0.036,0.119-0.062,0.192-0.078
					c0.114-0.031,0.348-0.073,0.603-0.021c0.213,0.042,0.358,0.078,0.473,0.13l0.078,0.036l0.348-0.608L19.48,3.302
					c-0.322-0.182-0.701-0.275-1.122-0.275c-0.447,0-0.805,0.119-1.07,0.348c-0.265,0.234-0.39,0.525-0.39,0.899
					c0,0.358,0.099,0.639,0.296,0.836c0.109,0.109,0.255,0.203,0.436,0.275c0.182,0.073,0.416,0.125,0.696,0.151
					c0.286,0.026,0.483,0.078,0.608,0.161c0.062,0.036,0.104,0.083,0.13,0.14c0.026,0.052,0.042,0.125,0.042,0.208
					c0,0.083-0.021,0.161-0.068,0.229c-0.135,0.197-0.41,0.301-0.826,0.301c-0.369,0-0.681-0.094-0.919-0.27L17.2,6.232
					l-0.301,0.644l-0.005,0.094l0.047,0.031c0.078,0.047,0.166,0.094,0.26,0.13c0.353,0.135,0.712,0.208,1.07,0.208
					c0.447,0,0.821-0.109,1.117-0.317c0.348-0.249,0.519-0.597,0.519-1.06c0-0.353-0.104-0.618-0.317-0.81
					C19.48,5.037,19.335,4.954,19.158,4.886z"/>
			</g>
		</g>
		<g>
			<path class="st2" d="M17.262,10.957c-0.143-0.048-0.27-0.115-0.369-0.206l0.115-0.238c0.111,0.087,0.222,0.151,0.341,0.19
				c0.115,0.04,0.246,0.059,0.393,0.059c0.167,0,0.293-0.032,0.385-0.091c0.091-0.063,0.135-0.151,0.135-0.262
				c0-0.095-0.044-0.171-0.127-0.214c-0.083-0.048-0.218-0.091-0.405-0.135c-0.178-0.04-0.321-0.079-0.436-0.131
				c-0.115-0.052-0.202-0.115-0.266-0.198c-0.063-0.083-0.095-0.19-0.095-0.317c0-0.131,0.036-0.246,0.103-0.345
				s0.167-0.175,0.293-0.23c0.127-0.056,0.274-0.083,0.44-0.083c0.155,0,0.301,0.024,0.44,0.071c0.139,0.048,0.25,0.115,0.337,0.202
				l-0.115,0.238c-0.103-0.083-0.21-0.147-0.317-0.186s-0.222-0.063-0.345-0.063c-0.159,0-0.286,0.032-0.377,0.099
				c-0.091,0.067-0.139,0.159-0.139,0.278c0,0.099,0.04,0.178,0.119,0.23c0.079,0.052,0.21,0.099,0.385,0.139
				c0.186,0.044,0.333,0.087,0.448,0.131c0.115,0.044,0.206,0.107,0.274,0.186c0.067,0.079,0.103,0.182,0.103,0.309
				c0,0.127-0.036,0.242-0.103,0.337s-0.167,0.171-0.293,0.222c-0.127,0.052-0.278,0.079-0.452,0.079
				C17.564,11.029,17.405,11.005,17.262,10.957z"/>
			<path class="st2" d="M18.924,8.776h0.365v0.333h-0.365V8.776z M18.948,11.001V9.462h0.317v1.539H18.948z"/>
			<path class="st2" d="M21.09,10.045v0.956h-0.317v-0.94c0-0.131-0.024-0.226-0.075-0.286s-0.131-0.091-0.242-0.091
				c-0.127,0-0.23,0.04-0.309,0.119c-0.079,0.079-0.115,0.186-0.115,0.321v0.877h-0.317V9.462h0.313v0.246
				c0.052-0.091,0.119-0.163,0.21-0.21c0.091-0.048,0.194-0.071,0.305-0.071C20.907,9.426,21.09,9.633,21.09,10.045z"/>
			<path class="st2" d="M21.795,10.926c-0.115-0.063-0.202-0.159-0.266-0.278c-0.063-0.119-0.091-0.258-0.091-0.416
				s0.032-0.301,0.095-0.424s0.155-0.218,0.27-0.286c0.115-0.067,0.254-0.099,0.409-0.099c0.107,0,0.21,0.016,0.309,0.056
				c0.099,0.036,0.182,0.083,0.246,0.147l-0.099,0.226c-0.139-0.115-0.282-0.171-0.432-0.171c-0.147,0-0.262,0.048-0.345,0.143
				c-0.083,0.095-0.123,0.23-0.123,0.405c0,0.171,0.04,0.305,0.123,0.401c0.083,0.095,0.198,0.139,0.349,0.139
				s0.293-0.056,0.432-0.171l0.099,0.23c-0.067,0.059-0.151,0.107-0.254,0.143c-0.099,0.036-0.206,0.052-0.317,0.052
				C22.045,11.025,21.911,10.993,21.795,10.926z"/>
			<path class="st2" d="M24.37,10.287h-1.087c0.024,0.325,0.186,0.488,0.484,0.488c0.178,0,0.337-0.059,0.48-0.175l0.099,0.222
				c-0.071,0.059-0.159,0.111-0.266,0.147s-0.214,0.056-0.321,0.056c-0.246,0-0.44-0.071-0.583-0.21
				c-0.143-0.143-0.214-0.337-0.214-0.583c0-0.159,0.032-0.297,0.091-0.42c0.063-0.123,0.151-0.218,0.262-0.286
				c0.111-0.067,0.242-0.099,0.385-0.099c0.21,0,0.373,0.067,0.492,0.202c0.119,0.135,0.178,0.321,0.178,0.559L24.37,10.287
				L24.37,10.287z M23.414,9.771c-0.071,0.075-0.115,0.186-0.131,0.329h0.809c-0.008-0.143-0.044-0.254-0.107-0.329
				c-0.067-0.075-0.159-0.115-0.278-0.115C23.584,9.656,23.489,9.696,23.414,9.771z"/>
			<path class="st2" d="M26.531,10.735h0.488v0.27h-1.301v-0.27h0.484V9.169l-0.389,0.238l-0.139-0.242l0.619-0.381h0.234
				L26.531,10.735L26.531,10.735z"/>
			<path class="st2" d="M28.736,9.034c0.147,0.186,0.222,0.456,0.222,0.805c0,0.25-0.036,0.46-0.107,0.639s-0.171,0.313-0.301,0.409
				s-0.29,0.139-0.476,0.139c-0.131,0-0.258-0.024-0.381-0.071c-0.123-0.048-0.23-0.111-0.325-0.198l0.115-0.238
				c0.202,0.163,0.397,0.242,0.579,0.242s0.321-0.079,0.42-0.238c0.099-0.159,0.147-0.385,0.147-0.678V9.835
				c-0.048,0.107-0.123,0.19-0.226,0.254c-0.103,0.063-0.222,0.091-0.353,0.091c-0.131,0-0.25-0.032-0.357-0.091
				c-0.103-0.059-0.186-0.143-0.246-0.25c-0.059-0.107-0.087-0.23-0.087-0.369c0-0.139,0.032-0.262,0.095-0.373
				c0.063-0.111,0.151-0.198,0.262-0.258c0.111-0.063,0.238-0.091,0.377-0.091C28.375,8.752,28.589,8.847,28.736,9.034z
				 M28.439,9.799c0.083-0.083,0.123-0.19,0.123-0.325s-0.04-0.246-0.123-0.329s-0.19-0.123-0.325-0.123
				c-0.131,0-0.234,0.04-0.313,0.123s-0.119,0.194-0.119,0.329c0,0.135,0.04,0.242,0.119,0.325c0.079,0.083,0.182,0.123,0.313,0.123
				C28.248,9.922,28.355,9.882,28.439,9.799z"/>
			<path class="st2" d="M30.628,9.034C30.775,9.22,30.85,9.49,30.85,9.839c0,0.25-0.036,0.46-0.107,0.639s-0.171,0.313-0.301,0.409
				s-0.29,0.139-0.476,0.139c-0.131,0-0.258-0.024-0.381-0.071c-0.123-0.048-0.23-0.111-0.325-0.198l0.115-0.238
				c0.202,0.163,0.397,0.242,0.579,0.242s0.321-0.079,0.42-0.238c0.099-0.159,0.147-0.385,0.147-0.678V9.835
				c-0.048,0.107-0.123,0.19-0.226,0.254c-0.103,0.063-0.222,0.091-0.353,0.091c-0.131,0-0.25-0.032-0.357-0.091
				c-0.103-0.059-0.186-0.143-0.246-0.25c-0.059-0.107-0.087-0.23-0.087-0.369c0-0.139,0.032-0.262,0.095-0.373
				c0.063-0.111,0.151-0.198,0.262-0.258c0.111-0.063,0.238-0.091,0.377-0.091C30.267,8.752,30.481,8.847,30.628,9.034z
				 M30.331,9.799c0.083-0.083,0.123-0.19,0.123-0.325s-0.04-0.246-0.123-0.329s-0.19-0.123-0.325-0.123
				c-0.131,0-0.234,0.04-0.313,0.123s-0.119,0.194-0.119,0.329c0,0.135,0.04,0.242,0.119,0.325c0.079,0.083,0.182,0.123,0.313,0.123
				C30.14,9.922,30.247,9.882,30.331,9.799z"/>
			<path class="st2" d="M32.663,10.061c0.071,0.095,0.107,0.214,0.107,0.349c0,0.194-0.071,0.345-0.214,0.452
				c-0.143,0.107-0.341,0.163-0.603,0.163c-0.258,0-0.46-0.056-0.603-0.163c-0.143-0.107-0.214-0.258-0.214-0.452
				c0-0.135,0.036-0.254,0.107-0.349s0.175-0.163,0.305-0.198c-0.111-0.044-0.198-0.107-0.262-0.198
				c-0.063-0.091-0.095-0.194-0.095-0.317c0-0.182,0.067-0.329,0.202-0.432c0.135-0.107,0.321-0.159,0.559-0.159
				s0.424,0.052,0.559,0.159c0.135,0.107,0.202,0.25,0.202,0.432c0,0.119-0.032,0.226-0.095,0.317
				c-0.063,0.091-0.151,0.159-0.262,0.198C32.488,9.898,32.591,9.966,32.663,10.061z M32.456,10.386c0-0.254-0.167-0.377-0.5-0.377
				c-0.333,0-0.5,0.127-0.5,0.377c0,0.25,0.167,0.377,0.5,0.377C32.29,10.763,32.456,10.636,32.456,10.386z M31.62,9.109
				c-0.075,0.063-0.115,0.151-0.115,0.266c0,0.119,0.04,0.21,0.115,0.274s0.186,0.095,0.333,0.095c0.147,0,0.258-0.032,0.333-0.095
				c0.075-0.063,0.115-0.155,0.115-0.274c0-0.115-0.04-0.206-0.115-0.266c-0.075-0.063-0.186-0.091-0.333-0.091
				C31.806,9.014,31.695,9.046,31.62,9.109z"/>
		</g>
	</g>
</g>
</svg>
