<?xml version="1.0" encoding="utf-8"?>
<!-- Generator: Adobe Illustrator 22.0.1, SVG Export Plug-In . SVG Version: 6.00 Build 0)  -->
<svg version="1.1" id="Layer_1" xmlns="http://www.w3.org/2000/svg" xmlns:xlink="http://www.w3.org/1999/xlink" x="0px" y="0px"
	 viewBox="0 0 72 56" style="enable-background:new 0 0 72 56;" xml:space="preserve">
<style type="text/css">
	.st0{fill:#FFFFFF;}
	.st1{fill:#74AA50;}
	.st2{opacity:0.3;}
	.st3{fill:url(#SVGID_1_);}
	.st4{fill:url(#SVGID_2_);}
	.st5{opacity:0.8;fill:#655656;}
	.st6{opacity:0.8;fill:#D48247;}
	.st7{opacity:0.8;fill:#CBC36E;}
	.st8{opacity:0.8;fill:#BD8669;}
	.st9{fill:#574239;}
	.st10{fill:#00427C;}
	.st11{fill:url(#SVGID_3_);}
	.st12{fill:url(#SVGID_4_);}
	.st13{fill:url(#SVGID_5_);}
	.st14{fill:url(#SVGID_6_);}
	.st15{fill-rule:evenodd;clip-rule:evenodd;fill:#FFFFFF;}
	.st16{fill-rule:evenodd;clip-rule:evenodd;fill:#74AA50;}
</style>
<g>
	<path class="st0" d="M65.571,56c1.619,0,3.021-0.536,4.213-1.597L49.385,33.91c-0.489,0.352-0.964,0.694-1.412,1.02
		c-1.526,1.13-2.766,2.012-3.717,2.643c-0.951,0.634-2.217,1.279-3.797,1.938c-1.581,0.66-3.054,0.989-4.42,0.989h-0.04h-0.04
		c-1.367,0-2.84-0.329-4.421-0.989c-1.581-0.659-2.847-1.304-3.797-1.938c-0.951-0.632-2.19-1.513-3.717-2.643
		c-0.425-0.313-0.898-0.658-1.408-1.026l-20.403,20.5C3.406,55.464,4.809,56,6.428,56H65.571z"/>
	<path class="st0" d="M4.887,21.004c-1.527-1.022-2.88-2.193-4.059-3.512v31.18l17.98-18.063
		C15.21,28.087,10.576,24.889,4.887,21.004z"/>
	<path class="st0" d="M67.154,21.004c-5.473,3.721-10.124,6.925-13.955,9.613l17.972,18.056v-31.18
		C70.019,18.785,68.68,19.955,67.154,21.004z"/>
	<path class="st0" d="M65.571,0H6.428c-2.063,0-3.65,0.7-4.761,2.098C0.555,3.498,0,5.247,0,7.346c0,1.695,0.737,3.531,2.209,5.51
		c1.473,1.978,3.04,3.531,4.701,4.661c0.911,0.646,3.657,2.564,8.237,5.752c2.473,1.721,4.623,3.222,6.472,4.517
		c1.575,1.103,2.933,2.058,4.055,2.85c0.128,0.091,0.331,0.236,0.6,0.429c0.289,0.209,0.656,0.474,1.108,0.802
		c0.87,0.632,1.594,1.144,2.17,1.534c0.575,0.391,1.272,0.827,2.09,1.312c0.817,0.484,1.588,0.848,2.311,1.09
		c0.723,0.242,1.393,0.363,2.009,0.363h0.041h0.04c0.616,0,1.286-0.121,2.009-0.363c0.723-0.242,1.493-0.606,2.311-1.09
		c0.817-0.485,1.513-0.922,2.09-1.312c0.576-0.391,1.299-0.902,2.169-1.534c0.451-0.328,0.818-0.593,1.108-0.801
		c0.269-0.194,0.471-0.338,0.6-0.43c0.874-0.611,2.235-1.562,4.066-2.839c3.331-2.325,8.237-5.747,14.738-10.28
		c1.956-1.372,3.589-3.027,4.902-4.964C71.344,10.616,72,8.585,72,6.459c0-1.776-0.637-3.296-1.908-4.562
		C68.819,0.632,67.312,0,65.571,0z"/>
</g>
</svg>
