<?xml version="1.0" encoding="utf-8"?>
<!-- Generator: Adobe Illustrator 22.1.0, SVG Export Plug-In . SVG Version: 6.00 Build 0)  -->
<svg version="1.1" id="Layer_1" xmlns="http://www.w3.org/2000/svg" xmlns:xlink="http://www.w3.org/1999/xlink" x="0px" y="0px"
	 viewBox="0 0 20 20" style="enable-background:new 0 0 20 20;" xml:space="preserve">
<style type="text/css">
	.st0{fill:#4DB53C;}
	.st1{fill:#DD9D22;}
	.st2{fill:#DD2222;}
	.st3{fill:#FFFFFF;}
</style>
<g>
	<circle class="st1" cx="10" cy="10" r="10"/>
</g>
<g>
	<path class="st3" d="M13.241,12.674c0.103,0,0.192,0.039,0.266,0.119l0.742,0.805c-0.411,0.509-0.916,0.898-1.516,1.169
		c-0.6,0.271-1.32,0.406-2.16,0.406c-0.751,0-1.427-0.129-2.026-0.386c-0.6-0.256-1.112-0.613-1.537-1.07
		c-0.425-0.458-0.75-1.004-0.977-1.639C5.808,11.445,5.695,10.751,5.695,10c0-0.761,0.126-1.458,0.378-2.09
		c0.252-0.633,0.606-1.177,1.064-1.635c0.458-0.457,1.004-0.813,1.642-1.067c0.637-0.254,1.34-0.382,2.11-0.382
		c0.751,0,1.408,0.12,1.971,0.361c0.562,0.24,1.044,0.559,1.445,0.955l-0.63,0.875c-0.037,0.056-0.086,0.104-0.144,0.146
		c-0.059,0.043-0.139,0.063-0.242,0.063c-0.107,0-0.217-0.042-0.329-0.126c-0.112-0.084-0.254-0.175-0.427-0.273
		c-0.173-0.098-0.391-0.188-0.654-0.272S11.281,6.43,10.875,6.43c-0.476,0-0.913,0.083-1.313,0.248
		C9.163,6.844,8.821,7.081,8.533,7.389C8.246,7.697,8.023,8.072,7.862,8.512C7.7,8.954,7.62,9.45,7.62,10
		c0,0.569,0.081,1.075,0.242,1.519s0.379,0.816,0.654,1.12s0.6,0.535,0.973,0.696c0.373,0.161,0.774,0.241,1.204,0.241
		c0.256,0,0.489-0.014,0.696-0.042c0.208-0.027,0.399-0.072,0.574-0.133c0.175-0.061,0.34-0.139,0.497-0.234
		c0.156-0.096,0.312-0.214,0.465-0.354c0.046-0.042,0.096-0.076,0.147-0.102S13.18,12.674,13.241,12.674z"/>
</g>
</svg>
