<?xml version="1.0" encoding="utf-8"?>
<!-- Generator: Adobe Illustrator 22.1.0, SVG Export Plug-In . SVG Version: 6.00 Build 0)  -->
<svg version="1.1" id="Layer_1" xmlns="http://www.w3.org/2000/svg" xmlns:xlink="http://www.w3.org/1999/xlink" x="0px" y="0px"
	 viewBox="0 0 20 20" style="enable-background:new 0 0 20 20;" xml:space="preserve">
<style type="text/css">
	.st0{fill:#4DB53C;}
	.st1{fill:#DD9D22;}
	.st2{fill:#DD2222;}
	.st3{fill:#FFFFFF;}
</style>
<g>
	<circle class="st0" cx="10" cy="10" r="10"/>
</g>
<g>
	<path class="st3" d="M10.76,13.675c0.425,0,0.795-0.038,1.109-0.115c0.315-0.077,0.615-0.183,0.899-0.318V11.4h-1.267
		c-0.121,0-0.217-0.034-0.287-0.102s-0.105-0.15-0.105-0.249V9.986h3.367v4.095c-0.257,0.187-0.523,0.35-0.801,0.486
		c-0.278,0.138-0.574,0.251-0.89,0.34c-0.314,0.089-0.652,0.155-1.012,0.199c-0.359,0.045-0.746,0.066-1.161,0.066
		c-0.738,0-1.417-0.128-2.037-0.385c-0.621-0.257-1.158-0.613-1.61-1.071c-0.453-0.457-0.806-1.003-1.061-1.638
		S5.524,10.752,5.524,10c0-0.761,0.124-1.458,0.371-2.093C6.142,7.272,6.493,6.727,6.948,6.27c0.455-0.458,1.007-0.813,1.655-1.064
		s1.377-0.378,2.185-0.378c0.826,0,1.541,0.123,2.146,0.367c0.604,0.245,1.116,0.563,1.536,0.956l-0.546,0.854
		c-0.107,0.173-0.25,0.26-0.427,0.26c-0.112,0-0.227-0.038-0.343-0.112c-0.149-0.089-0.303-0.178-0.459-0.266
		c-0.156-0.089-0.329-0.166-0.518-0.231c-0.189-0.065-0.401-0.119-0.638-0.161c-0.235-0.042-0.507-0.063-0.815-0.063
		c-0.499,0-0.95,0.084-1.354,0.252C8.967,6.851,8.622,7.091,8.338,7.403C8.052,7.716,7.834,8.092,7.679,8.53
		C7.526,8.969,7.448,9.459,7.448,10c0,0.584,0.082,1.103,0.245,1.558c0.164,0.455,0.393,0.839,0.687,1.151
		c0.294,0.313,0.644,0.552,1.05,0.718S10.279,13.675,10.76,13.675z"/>
</g>
</svg>
