<?xml version="1.0" encoding="utf-8"?>
<!-- Generator: Adobe Illustrator 22.1.0, SVG Export Plug-In . SVG Version: 6.00 Build 0)  -->
<svg version="1.1" xmlns="http://www.w3.org/2000/svg" xmlns:xlink="http://www.w3.org/1999/xlink" x="0px" y="0px"
	 viewBox="0 0 87 36.13" style="enable-background:new 0 0 87 36.13;" xml:space="preserve">
<style type="text/css">
	.st0{fill:#FFFFFF;}
	.st1{fill:#367C1A;}
	.st2{fill:#333333;}
</style>
<g id="Layer_1">
</g>
<g id="Layer_3">
	<g>
		<g>
			<g>
				<ellipse class="st0" cx="18.012" cy="18.826" rx="16.237" ry="15.4"/>
				<g>
					<path class="st1" d="M26.832,10.524c-1.332-0.519-2.677-0.248-3.019,0.601c-0.342,0.849,0.46,1.981,1.804,2.5
						c1.332,0.519,2.547,0.425,3.019-0.601C29.002,12.175,28.165,11.043,26.832,10.524z"/>
					<path class="st1" d="M9.994,17.446c-0.177,0.083-0.342,0.071-0.472,0.177c-0.719,0.601-1.592,3.03-1.875,4.139
						c-0.118,0.46-0.448,1.309-0.236,1.804c0.106,0.283,0.531,0.472,0.802,0.59c0.613,0.283,1.981,0.979,2.783,0.908
						c0.448-0.047,0.649-0.566,0.849-0.884c0.66-1.026,1.144-2.311,1.509-3.597c0.118-0.413,0.413-1.226,0.189-1.663
						C13.189,18.33,10.913,17.529,9.994,17.446z"/>
					<path class="st1" d="M30.841,5.289c-7.052-7.052-18.501-7.052-25.553,0s-7.052,18.501,0,25.553s18.501,7.052,25.553,0
						S37.905,12.34,30.841,5.289z M17.788,5.371l2.806,1.049l-3.785,9.964l-2.818-1.073L17.788,5.371z M12.281,27.186
						c-1.179,0.366-3.019-0.366-3.903-0.719c-1.297-0.542-2.854-1.085-3.431-2.335c-0.401-0.873-0.259-1.981-0.059-2.972
						c0.436-2.04,1.309-4.115,2.665-5.283c0.283-0.236,1.038-0.542,1.285-0.578c0.601-0.083,1.215-0.035,1.804,0.118
						c1.851,0.483,4.457,1.545,5.224,2.854c0.542,0.92,0.354,2.323,0.071,3.384C15.406,23.755,14.25,26.585,12.281,27.186z
						 M26.608,25.288c-0.802,1.332-2.323,1.391-4.056,1.592l-1.226,0.059c-0.991,0.153-2.901,0.153-3.113,0.979l6.285,2.417
						c-0.106,0.33-0.731,1.875-0.731,1.875l-8.95-3.42c0,0,0.283-0.766,0.436-1.156c0.601-1.474,1.439-2.264,3.207-2.677
						s5.047-0.024,5.601-0.896c0.342-0.542-0.33-1.25-0.649-1.498c-1.415-1.073-4.339-1.085-5.578-0.908
						c0.047-0.259,0.731-2.075,0.861-2.193c0.861-0.142,4.988,0.071,7.346,2.512C26.773,22.717,27.304,24.132,26.608,25.288z
						 M25.429,18.012c-0.613,0.177-2.559,0.708-2.559,0.708l-3.726-1.415v-0.071l1.615-0.354c1.132-0.283,2.24-0.507,3.313-0.884
						l1.085-0.354l-0.766-0.283c-0.46-0.177-0.896-0.413-1.321-0.684c-1.368-0.932-2.842-2.854-1.733-4.894
						c0.413-0.778,1.557-2.075,4.504-1.592c1.922,0.318,3.903,1.25,4.964,2.806c0.649,0.955,0.873,2.582,0.2,3.703
						C29.922,16.491,27.634,17.352,25.429,18.012z"/>
				</g>
			</g>
		</g>
		<g>
			<path class="st2" d="M45.144,24.968c-1.354,0-3.176-0.637-4.192-2.027l1.963-1.558c0.676,0.731,1.761,1.183,2.902,1.183
				c1.333,0,2.299-0.571,2.521-1.489c0.082-0.351,0.025-0.685-0.165-0.968c-0.35-0.523-1.132-0.863-2.39-1.041
				c-1.178-0.193-2.185-0.805-2.753-1.678c-0.487-0.749-0.621-1.664-0.386-2.645c0.744-3.117,3.762-3.582,5.496-3.582
				c1.741,0,2.943,0.527,3.831,1.697l-1.968,1.315c-0.607-0.543-1.47-0.872-2.388-0.894c-0.03-0.001-0.059-0.001-0.087-0.001
				c-1.218,0-2.1,0.583-2.248,1.486c-0.254,1.459,1.381,1.827,1.997,1.966l0.016,0.003c1.001,0.189,2.249,0.498,3.022,1.218
				c0.765,0.713,0.968,1.762,0.621,3.21C50.353,23.58,48.242,24.968,45.144,24.968z"/>
			<polygon class="st2" points="52.341,24.765 54.214,11.365 63.241,11.365 62.891,13.828 56.561,13.828 56.118,16.925 
				60.527,16.925 60.214,19.185 55.809,19.185 55.368,22.302 61.702,22.302 61.367,24.765 			"/>
			<path class="st2" d="M68.067,24.968c-1.72,0-3.192-0.559-4.038-1.534c-0.652-0.751-0.901-1.709-0.739-2.846L64,15.679
				c0.457-3.103,3.512-4.517,6.157-4.517c1.728,0,3.207,0.562,4.058,1.542c0.651,0.75,0.9,1.705,0.739,2.838l-0.71,4.909
				C73.801,23.572,70.822,24.968,68.067,24.968z M69.771,13.504c-1.343,0-2.884,0.637-3.095,2.034l-0.711,4.913
				c-0.068,0.494,0.064,0.945,0.38,1.308c0.441,0.505,1.236,0.807,2.128,0.807c1.348,0,2.892-0.65,3.096-2.078l0.71-4.807
				c0.079-0.522-0.051-0.999-0.375-1.376C71.465,13.796,70.688,13.504,69.771,13.504z"/>
			<polygon class="st2" points="80.3,22.995 80.787,19.525 77.237,19.525 77.587,17.042 81.14,17.042 81.607,13.592 84.061,13.592 
				83.594,17.042 87,17.042 86.65,19.525 83.24,19.525 82.753,22.995 			"/>
		</g>
	</g>
</g>
<g id="Layer_2">
</g>
</svg>
