<?xml version="1.0" encoding="utf-8"?>
<!-- Generator: Adobe Illustrator 22.1.0, SVG Export Plug-In . SVG Version: 6.00 Build 0)  -->
<svg version="1.1" xmlns="http://www.w3.org/2000/svg" xmlns:xlink="http://www.w3.org/1999/xlink" x="0px" y="0px"
	 viewBox="0 0 457.513 190" style="enable-background:new 0 0 457.513 190;" xml:space="preserve">
<style type="text/css">
	.st0{fill:#FFFFFF;}
	.st1{fill:#367C1A;}
	.st2{fill:#333333;}
</style>
<g id="Layer_1">
</g>
<g id="Layer_3">
	<g>
		<g>
			<g>
				<g>
					<path class="st0" d="M141.105,55.344c-7.007-2.728-14.076-1.302-15.875,3.163s2.418,10.418,9.488,13.146
						c7.007,2.728,13.394,2.232,15.875-3.163C152.515,64.026,148.112,58.073,141.105,55.344z"/>
					<path class="st0" d="M52.554,91.744c-0.93,0.434-1.798,0.372-2.48,0.93c-3.783,3.163-8.371,15.937-9.86,21.766
						c-0.62,2.418-2.356,6.883-1.24,9.488c0.558,1.488,2.79,2.48,4.217,3.101c3.225,1.488,10.418,5.147,14.634,4.775
						c2.356-0.248,3.411-2.977,4.465-4.651c3.473-5.395,6.015-12.154,7.937-18.913c0.62-2.17,2.17-6.449,0.992-8.743
						C69.359,96.395,57.391,92.179,52.554,91.744z"/>
					<path class="st0" d="M162.188,27.812c-37.082-37.082-97.294-37.082-134.377,0s-37.082,97.294,0,134.377
						s97.294,37.082,134.377,0S199.333,64.894,162.188,27.812z M93.543,28.246l14.758,5.519L88.396,86.164l-14.82-5.643
						L93.543,28.246z M64.584,142.965c-6.201,1.922-15.875-1.922-20.525-3.783c-6.821-2.852-15.007-5.705-18.045-12.278
						c-2.108-4.589-1.364-10.418-0.31-15.627c2.294-10.728,6.883-21.642,14.014-27.781c1.488-1.24,5.457-2.852,6.759-3.039
						c3.163-0.434,6.387-0.186,9.488,0.62c9.736,2.542,23.44,8.123,27.471,15.007c2.852,4.837,1.86,12.216,0.372,17.797
						C81.017,124.92,74.94,139.803,64.584,142.965z M139.927,132.981c-4.217,7.007-12.216,7.317-21.332,8.371l-6.449,0.31
						c-5.209,0.806-15.255,0.806-16.371,5.147l33.052,12.712c-0.558,1.736-3.845,9.86-3.845,9.86l-47.066-17.983
						c0,0,1.488-4.031,2.294-6.077c3.163-7.751,7.565-11.906,16.867-14.076s26.54-0.124,29.455-4.713
						c1.798-2.852-1.736-6.573-3.411-7.875c-7.441-5.643-22.82-5.705-29.331-4.775c0.248-1.364,3.845-10.914,4.527-11.534
						c4.527-0.744,26.23,0.372,38.633,13.208C140.795,119.463,143.585,126.904,139.927,132.981z M133.726,94.721
						c-3.225,0.93-13.456,3.721-13.456,3.721L100.674,91v-0.372l8.495-1.86c5.953-1.488,11.782-2.666,17.425-4.651l5.705-1.86
						l-4.031-1.488c-2.418-0.93-4.713-2.17-6.945-3.597c-7.193-4.899-14.945-15.007-9.116-25.734
						c2.17-4.093,8.185-10.914,23.688-8.371c10.108,1.674,20.525,6.573,26.106,14.758c3.411,5.023,4.589,13.58,1.054,19.471
						C157.352,86.722,145.321,91.248,133.726,94.721z"/>
				</g>
			</g>
		</g>
		<g>
			<path class="st0" d="M237.403,131.299c-7.122,0-16.7-3.351-22.045-10.66l10.325-8.195c3.556,3.843,9.263,6.224,15.263,6.224
				c7.011,0,12.09-3.001,13.257-7.831c0.432-1.847,0.132-3.601-0.865-5.089c-1.843-2.749-5.954-4.54-12.568-5.475
				c-6.194-1.013-11.491-4.233-14.478-8.824c-2.563-3.939-3.266-8.749-2.032-13.909c3.911-16.391,19.785-18.839,28.9-18.839
				c9.158,0,15.475,2.772,20.146,8.924l-10.35,6.915c-3.192-2.858-7.731-4.583-12.559-4.701c-0.157-0.003-0.309-0.005-0.459-0.005
				c-6.404,0-11.044,3.067-11.82,7.813c-1.338,7.675,7.264,9.609,10.502,10.337L248.702,88c5.263,0.994,11.827,2.621,15.891,6.405
				c4.024,3.747,5.093,9.268,3.267,16.878C264.796,124.003,253.695,131.299,237.403,131.299z"/>
			<polygon class="st0" points="275.247,130.232 285.101,59.768 332.568,59.768 330.729,72.719 297.439,72.719 295.113,89.004 
				318.296,89.004 316.651,100.889 293.488,100.889 291.169,117.281 324.476,117.281 322.713,130.232 			"/>
			<path class="st0" d="M357.947,131.299c-9.046,0-16.785-2.939-21.234-8.065c-3.428-3.95-4.736-8.985-3.887-14.966l3.734-25.816
				c2.402-16.317,18.468-23.751,32.377-23.751c9.088,0,16.866,2.956,21.339,8.108c3.426,3.947,4.734,8.968,3.888,14.923
				l-3.734,25.816C388.102,123.957,372.438,131.299,357.947,131.299z M366.911,71.012c-7.062,0-15.168,3.348-16.277,10.698
				l-3.738,25.838c-0.357,2.599,0.335,4.971,1.997,6.878c2.317,2.656,6.499,4.242,11.188,4.242c7.088,0,15.206-3.421,16.28-10.93
				l3.733-25.278c0.414-2.746-0.267-5.251-1.974-7.234C375.816,72.548,371.731,71.012,366.911,71.012z"/>
			<polygon class="st0" points="422.279,120.924 424.84,102.678 406.17,102.678 408.013,89.619 426.699,89.619 429.153,71.48 
				442.058,71.48 439.604,89.619 457.513,89.619 455.67,102.678 437.742,102.678 435.181,120.924 			"/>
		</g>
	</g>
</g>
<g id="Layer_2">
</g>
</svg>
