<svg id="Layer_4" data-name="Layer 4" xmlns="http://www.w3.org/2000/svg" viewBox="0 0 12.058 11.999"><defs><style>.cls-1{fill:#817f85;}</style></defs><title>umbraco-icons</title><g id="Search"><path class="cls-1" d="M11.864,10.383a.565.565,0,0,1,0,.8l-.656.656a.565.565,0,0,1-.8,0L8.068,9.491a.543.543,0,0,1-.164-.4V8.718a4.72,4.72,0,0,1-3,1.031,4.737,4.737,0,0,1-2.449-.656,4.923,4.923,0,0,1-1.77-1.77A4.733,4.733,0,0,1,.029,4.874,4.74,4.74,0,0,1,.685,2.425,4.923,4.923,0,0,1,2.455.655,4.726,4.726,0,0,1,4.9,0,4.737,4.737,0,0,1,7.352.656a4.923,4.923,0,0,1,1.77,1.77,4.733,4.733,0,0,1,.656,2.449,4.726,4.726,0,0,1-1.031,3h.375a.543.543,0,0,1,.4.164ZM4.9,7.875a2.981,2.981,0,0,0,1.512-.4,2.917,2.917,0,0,0,1.09-1.09,2.971,2.971,0,0,0,.4-1.512,2.981,2.981,0,0,0-.4-1.512,2.917,2.917,0,0,0-1.09-1.09,2.971,2.971,0,0,0-1.512-.4,2.981,2.981,0,0,0-1.512.4A2.917,2.917,0,0,0,2.3,3.363a2.971,2.971,0,0,0-.4,1.512,2.981,2.981,0,0,0,.4,1.512,2.917,2.917,0,0,0,1.09,1.09A2.971,2.971,0,0,0,4.9,7.875Z"/></g></svg>