<svg id="Layer_4" data-name="Layer 4" xmlns="http://www.w3.org/2000/svg" viewBox="0 0 20 20"><defs><style>.cls-1{fill:#fff;}</style></defs><title>umbraco-icons</title><path id="Alert_Wht" data-name="Alert Wht" class="cls-1" d="M10,0h0A10,10,0,0,0,0,10H0A10,10,0,0,0,10,20h0A10,10,0,0,0,20,10h0A10,10,0,0,0,10,0ZM8.956,4.327h2.133V8.534a11.089,11.089,0,0,1-.081,1.342q-.081.666-.213,1.357H9.25q-.132-.692-.213-1.357a11.1,11.1,0,0,1-.081-1.342ZM11.2,14.385a1.2,1.2,0,0,1-.276.4,1.3,1.3,0,0,1-.412.265,1.415,1.415,0,0,1-1.022,0,1.245,1.245,0,0,1-.408-.265,1.232,1.232,0,0,1-.272-.4,1.252,1.252,0,0,1-.1-.5,1.227,1.227,0,0,1,.1-.493,1.247,1.247,0,0,1,.272-.4A1.3,1.3,0,0,1,10,12.63a1.291,1.291,0,0,1,.507.1,1.341,1.341,0,0,1,.412.269,1.213,1.213,0,0,1,.375.89A1.236,1.236,0,0,1,11.2,14.385Z"/></svg>