<svg id="Layer_4" data-name="Layer 4" xmlns="http://www.w3.org/2000/svg" viewBox="0 0 15.032 15"><defs><style>.cls-1{fill:#817f85;}</style></defs><title>umbraco-icons</title><g id="Confirm"><path class="cls-1" d="M14,11.249a7.56,7.56,0,0,1-2.737,2.737A7.263,7.263,0,0,1,7.516,15a7.261,7.261,0,0,1-3.749-1.014A7.56,7.56,0,0,1,1.03,11.249,7.263,7.263,0,0,1,.016,7.5,7.261,7.261,0,0,1,1.03,3.751,7.56,7.56,0,0,1,3.767,1.014,7.263,7.263,0,0,1,7.516,0a7.261,7.261,0,0,1,3.749,1.014A7.56,7.56,0,0,1,14,3.751,7.263,7.263,0,0,1,15.016,7.5,7.261,7.261,0,0,1,14,11.249ZM5.641,2.994A4.215,4.215,0,0,0,4.189,4.416a.3.3,0,0,0-.06.256A.38.38,0,0,0,4.28,4.9l1.059.787a.283.283,0,0,0,.242.075.332.332,0,0,0,.242-.136,5.883,5.883,0,0,1,.756-.787,1.627,1.627,0,0,1,.968-.3,1.7,1.7,0,0,1,.952.288.834.834,0,0,1,.439.71.742.742,0,0,1-.273.574,5.945,5.945,0,0,1-.695.454l-.061.03a4.394,4.394,0,0,0-1.059.755,1.914,1.914,0,0,0-.544,1.361v.121a.362.362,0,0,0,.363.363H8.362a.362.362,0,0,0,.363-.363V8.8a.527.527,0,0,1,.242-.424,5.228,5.228,0,0,1,.575-.363,5.431,5.431,0,0,0,1.118-.846,2.3,2.3,0,0,0,.574-1.6,2.6,2.6,0,0,0-.514-1.558A3.592,3.592,0,0,0,9.389,2.888,3.68,3.68,0,0,0,7.726,2.48,4.05,4.05,0,0,0,5.641,2.994Zm.892,7.394a1.391,1.391,0,0,0,.982,2.373,1.391,1.391,0,1,0-.982-2.373Z"/></g></svg>