<?xml version="1.0" encoding="utf-8"?>
<!-- Generator: Adobe Illustrator 22.0.0, SVG Export Plug-In . SVG Version: 6.00 Build 0)  -->
<svg version="1.1" id="Layer_1" xmlns="http://www.w3.org/2000/svg" xmlns:xlink="http://www.w3.org/1999/xlink" x="0px" y="0px"
	 viewBox="0 0 320 320" style="enable-background:new 0 0 320 320;" xml:space="preserve">
<g>
	<path d="M3.2,85.9l16-16c1.9-1.9,4.5-3.2,7.4-3.2c2.6,0,5.5,1.3,7.4,3.2l126,126l126-126c1.9-1.9,4.8-3.2,7.4-3.2
		c2.6,0,5.5,1.3,7.4,3.2l16,16c1.9,1.9,3.2,4.8,3.2,7.4c0,2.6-1.3,5.5-3.2,7.4L167.4,250.1c-1.9,1.9-4.8,3.2-7.4,3.2
		s-5.5-1.3-7.4-3.2L3.2,100.7C1.3,98.8,0,95.9,0,93.3C0,90.7,1.3,87.9,3.2,85.9z"/>
</g>
</svg>
