<?xml version="1.0" encoding="utf-8"?>
<!-- Generator: Adobe Illustrator 22.0.0, SVG Export Plug-In . SVG Version: 6.00 Build 0)  -->
<svg version="1.1" id="Layer_1" xmlns="http://www.w3.org/2000/svg" xmlns:xlink="http://www.w3.org/1999/xlink" x="0px" y="0px"
	 viewBox="0 0 320 320" style="enable-background:new 0 0 320 320;" xml:space="preserve">
<g>
	<path d="M316.8,234.1l-16,16c-1.9,1.9-4.5,3.2-7.4,3.2c-2.6,0-5.5-1.3-7.4-3.2l-126-126l-126,126c-1.9,1.9-4.8,3.2-7.4,3.2
		s-5.5-1.3-7.4-3.2l-16-16c-1.9-1.9-3.2-4.8-3.2-7.4c0-2.6,1.3-5.5,3.2-7.4L152.6,69.9c1.9-1.9,4.8-3.2,7.4-3.2s5.5,1.3,7.4,3.2
		l149.4,149.4c1.9,1.9,3.2,4.8,3.2,7.4C320,229.3,318.7,232.1,316.8,234.1z"/>
</g>
</svg>
